<svg id="Capa_1" enable-background="new 0 0 512 512" height="512" viewBox="0 0 512 512" width="512" xmlns="http://www.w3.org/2000/svg"><g><path d="m505.069 263.509c11.861-20.543 8.161-46.141-8.513-62.417 8.688-19.26 1.631-42.522-17.278-53.436-18.858-10.89-42.546-5.451-54.917 11.75-22.455-6.297-46.461 3.304-58.308 23.842-2.414 4.183-4.219 8.644-5.378 13.292-.256-.051-.514-.089-.771-.136l7.589-77.324c1.093-11.09-7.648-20.734-18.802-20.734h-37.856c-4.142 0-7.499 3.358-7.499 7.499 0 4.142 3.358 7.499 7.499 7.499h37.856c2.298 0 4.101 1.984 3.876 4.267l-5.802 59.121h-148.549l-23.072-63.388h100.693c4.142 0 7.499-3.358 7.499-7.499 0-4.142-3.358-7.499-7.499-7.499h-106.152l-24.682-67.814c-2.409-6.621-9.756-10.046-16.379-7.637l-22.819 8.306c-3.208 1.167-5.769 3.514-7.212 6.608-1.442 3.093-1.594 6.564-.426 9.771l18.478 50.767h-15.759c-11.139 0-19.881 9.623-18.802 20.73l19.546 199.15c-18.615-9.557-38.311-13.616-56.701-11.501-6.543.767-11.648 5.872-12.417 12.434-1.084 9.46-.522 19.379 1.672 29.482.762 3.511 3.868 5.91 7.321 5.91.527 0 1.062-.056 1.598-.172 4.048-.878 6.617-4.872 5.738-8.919-1.792-8.255-2.296-16.301-1.502-23.91 17.804-1.858 38.028 3.574 56.088 14.978l5.958 60.707c-10.543-1.424-21.294-1.59-31.972-.496-6.357-6.527-11.894-13.667-16.451-21.261-2.132-3.551-6.738-4.703-10.289-2.571s-4.702 6.738-2.571 10.289c3.46 5.764 7.411 11.294 11.812 16.544-23.384 5.689-43.561 17.687-56.834 34.419-4.106 5.176-4.106 12.405 0 17.581 18.942 23.879 51.936 38.135 88.257 38.135 12.918 0 25.445-1.81 37.312-5.354 4.894 3.387 10.833 5.354 17.222 5.354h157.834c2.148 0 4.27-.238 6.335-.687 5.222.435 10.603.673 16.426.673 20.974 0 42.636-3.19 51.117-10.308 10.401-8.727 18.426-37.992 20.979-62.39.438-4.186.807-9.109.953-14.484 2.662.445 6.313 1.36 12.178 1.36 18.549 0 36.013-9.806 45.582-26.376 2.566-4.447 4.463-9.216 5.639-14.17.512-2.151 2.454-3.869 4.956-4.378 14.423-2.95 26.907-11.945 34.249-24.675 10.974-19.005 8.503-43.245-5.88-59.637 3.453-3.325 6.418-7.117 8.83-11.295zm-205.91 94.754 1.676 28.641c.019.316-.095.58-.338.784-.243.203-.521.27-.83.197l-27.907-6.622c-4.216-1.004-8.555-.283-12.216 2.032-3.661 2.316-6.172 5.927-7.072 10.177-1.975 9.383-6.615 29.865-12.666 46.484-8.594-13.751-11.435-28.922-8.185-44.404 3.733-17.784 15.489-35.717 33.102-50.497 30.06-25.223 68.638-34.323 97.795-8.061-17.421 3.075-38.403 4.088-47.995 4.403-4.332.148-8.324 1.994-11.241 5.197-2.916 3.203-4.38 7.35-4.123 11.669zm34.811-51.173c-25.853-4.019-51.763 5.974-72.65 21.561-10.212-11.706-25.254-18.201-40.946-17.27-4.134.244-7.288 3.794-7.044 7.928s3.786 7.285 7.928 7.044c10.7-.626 21.321 3.947 28.51 11.934-17.227 16.021-28.806 35.039-32.825 54.182-1.898 9.043-2.151 17.978-.809 26.664h-60.364c-16.629 0-30.391-12.48-32.012-29.029-.002-.023-.008-.045-.01-.068l-19.463-198.305h241.007c-.447 4.545-9.804 99.883-11.322 115.359zm-151.715-130.357h-21.119l-23.071-63.388h21.119zm-69.235-132.198 18.648-6.787 22.056 60.598h-21.119zm-12.135 68.809h21.218l23.071 63.388h-42.362l-5.802-59.114c-.221-2.286 1.578-4.274 3.875-4.274zm-85.629 329.607c20.78-25.637 60.451-36.182 95.639-30.319l4.906 49.985c.322 3.253 1.148 6.336 2.389 9.182-8.626 2.036-17.616 3.079-26.852 3.079-31.034 0-60.106-12.217-76.082-31.927zm130.614 31.927c-7.959 0-14.385-6.049-15.144-13.731l-3.596-36.639c7.952 6.061 17.885 9.625 28.639 9.625h64.369c3.207 8.347 7.987 16.365 14.314 23.906 5.912 7.047 13.406 12.57 21.47 16.84h-110.052zm222.073-6.812c-10.391 8.716-84.86 13.812-117.253-14.831 7.678-17.915 13.523-42.723 16.458-56.666.055-.258.194-.46.415-.6.221-.139.463-.179.727-.116l27.916 6.624c4.955 1.176 10.033-.028 13.933-3.301s5.967-8.065 5.67-13.148l-1.677-28.65c-.016-.263.065-.495.241-.687.176-.193.399-.296.653-.304 14.248-.469 39.693-1.917 58.673-6.368 22.61 36.921 4.546 109.401-5.756 118.047zm121.186-141.12c-5.2 9.017-14.044 15.387-24.256 17.476-8.195 1.668-14.691 7.792-16.551 15.606-.841 3.543-2.199 6.955-4.037 10.14-8.177 14.161-24.416 21.417-40.408 18.06-1.543-.324-3.085-.539-4.624-.7-1.198-18.619-5.932-38.256-18.004-52.664 0 0-.557-.648-.835-.971l17.288-29.946 37.553-4.463c4.112-.489 7.051-4.219 6.562-8.332-.488-4.112-4.218-7.05-8.332-6.562l-26.42 3.14 16.168-28.006 37.555-4.463c4.113-.489 7.051-4.219 6.562-8.332-.489-4.112-4.212-7.044-8.332-6.562l-35.719 4.245-14.181-33.055c-1.634-3.807-6.044-5.567-9.849-3.935-3.806 1.633-5.568 6.042-3.935 9.849l14.91 34.754-16.168 28.006-10.491-24.45c-1.633-3.807-6.044-5.567-9.849-3.935-3.806 1.633-5.568 6.043-3.935 9.849l14.912 34.754-15.366 26.617c-6.401-5.223-13.329-9.263-20.688-12.079l9.773-99.581c.218.048.437.086.655.139 7.115 1.682 14.339-2.861 15.841-10.067.789-3.756 2.173-7.366 4.116-10.732 8.892-15.414 27.447-22.134 44.106-15.976 4.472 1.663 9.46-.117 11.86-4.231.027-.046.054-.094.081-.142 7.453-12.8 23.835-17.171 36.688-9.75 12.873 7.43 17.28 23.863 9.843 36.739-.032.055-.064.113-.096.172-2.273 4.09-1.325 9.206 2.319 12.258 13.671 11.353 17.135 30.781 8.236 46.195-1.936 3.353-4.372 6.353-7.265 8.938-5.392 4.86-5.876 13.351-.755 18.756 10.986 11.601 13.071 29.382 5.068 43.241z"/><path d="m341.628 425.038c-2.662-3.173-7.392-3.587-10.565-.925s-3.587 7.392-.925 10.565l2.219 2.645c1.483 1.768 3.609 2.679 5.749 2.679 1.701 0 3.411-.576 4.816-1.754 3.173-2.662 3.587-7.392.925-10.565z"/><path d="m302.012 431.149c-2.662-3.173-7.393-3.587-10.565-.924-3.173 2.662-3.586 7.393-.924 10.565l2.219 2.644c1.483 1.767 3.609 2.678 5.748 2.678 1.701 0 3.412-.576 4.817-1.755 3.173-2.662 3.586-7.393.924-10.565z"/><path d="m354.526 387.085c-2.662-3.173-7.392-3.587-10.565-.925s-3.587 7.392-.925 10.565l2.219 2.645c1.483 1.768 3.609 2.679 5.749 2.679 1.701 0 3.411-.576 4.816-1.754 3.173-2.662 3.587-7.392.925-10.565z"/></g></svg>